<?xml version="1.0" encoding="UTF-8" standalone="no"?>
<!-- Created with Inkscape (http://www.inkscape.org/) -->

<svg
   xmlns:dc="http://purl.org/dc/elements/1.1/"
   xmlns:cc="http://creativecommons.org/ns#"
   xmlns:rdf="http://www.w3.org/1999/02/22-rdf-syntax-ns#"
   xmlns:svg="http://www.w3.org/2000/svg"
   xmlns="http://www.w3.org/2000/svg"
   xmlns:xlink="http://www.w3.org/1999/xlink"
   xmlns:sodipodi="http://sodipodi.sourceforge.net/DTD/sodipodi-0.dtd"
   xmlns:inkscape="http://www.inkscape.org/namespaces/inkscape"
   height="256"
   id="svg2"
   inkscape:output_extension="org.inkscape.output.svg.inkscape"
   inkscape:version="0.48.1 "
   sodipodi:docname="icon.svg"
   sodipodi:version="0.32"
   version="1.0"
   width="256"
   inkscape:export-filename="C:\Users\Gareth\Desktop\Git_icon_16.png"
   inkscape:export-xdpi="5.6300001"
   inkscape:export-ydpi="5.6300001">
  <metadata
     id="metadata3001">
    <rdf:RDF>
      <cc:Work
         rdf:about="">
        <dc:title></dc:title>
        <dc:description />
        <dc:subject>
          <rdf:Bag>
            <rdf:li>unsorted</rdf:li>
          </rdf:Bag>
        </dc:subject>
        <dc:publisher>
          <cc:Agent
             rdf:about="http://www.openclipart.org/">
            <dc:title>Open Clip Art Library, Source: Wiki Commons, Source: Wikimedia Commons</dc:title>
          </cc:Agent>
        </dc:publisher>
        <dc:creator>
          <cc:Agent>
            <dc:title />
          </cc:Agent>
        </dc:creator>
        <dc:rights>
          <cc:Agent>
            <dc:title />
          </cc:Agent>
        </dc:rights>
        <dc:date />
        <dc:format>image/svg+xml</dc:format>
        <dc:type
           rdf:resource="http://purl.org/dc/dcmitype/StillImage" />
        <cc:license
           rdf:resource="GPL" />
        <dc:language>en</dc:language>
      </cc:Work>
    </rdf:RDF>
  </metadata>
  <defs
     id="defs22">
    <inkscape:perspective
       id="perspective26"
       inkscape:persp3d-origin="35.5 : 8.6666667 : 1"
       inkscape:vp_x="0 : 13 : 1"
       inkscape:vp_y="0 : 1000 : 0"
       inkscape:vp_z="71 : 13 : 1"
       sodipodi:type="inkscape:persp3d" />
    <inkscape:perspective
       sodipodi:type="inkscape:persp3d"
       inkscape:vp_x="0 : 0.5 : 1"
       inkscape:vp_y="0 : 1000 : 0"
       inkscape:vp_z="1 : 0.5 : 1"
       inkscape:persp3d-origin="0.5 : 0.33333333 : 1"
       id="perspective3421" />
    <inkscape:perspective
       id="perspective3437"
       inkscape:persp3d-origin="372.04724 : 350.78739 : 1"
       inkscape:vp_z="744.09448 : 526.18109 : 1"
       inkscape:vp_y="0 : 1000 : 0"
       inkscape:vp_x="0 : 526.18109 : 1"
       sodipodi:type="inkscape:persp3d" />
  </defs>
  <sodipodi:namedview
     bordercolor="#666666"
     borderopacity="1.0"
     gridtolerance="10.0"
     guidetolerance="10.0"
     id="base"
     inkscape:current-layer="layer2"
     inkscape:cx="77.864454"
     inkscape:cy="51.640736"
     inkscape:pageopacity="0.0"
     inkscape:pageshadow="2"
     inkscape:window-height="998"
     inkscape:window-width="1680"
     inkscape:window-x="1912"
     inkscape:window-y="-8"
     inkscape:zoom="1.9683098"
     objecttolerance="10.0"
     pagecolor="#ffffff"
     showgrid="false"
     inkscape:window-maximized="1" />
  <g
     inkscape:groupmode="layer"
     id="layer2"
     inkscape:label="Layer#1"
     style="display:inline">
    <rect
       style="fill:#ffffff;fill-opacity:1;stroke:#4f4f4f;stroke-width:8;stroke-linecap:butt;stroke-linejoin:round;stroke-miterlimit:4;stroke-opacity:1;stroke-dasharray:none;stroke-dashoffset:0;opacity:1"
       id="rect3821"
       width="247.97041"
       height="247.97038"
       x="4.5514822"
       y="4.4942245" />
  </g>
  <g
     inkscape:groupmode="layer"
     id="layer3"
     inkscape:label="Layer#2"
     style="display:inline">
    <g
       transform="matrix(7.1021514,0,0,-7.1021514,105.9909,171.78099)"
       id="g128"
       style="fill:#000000;fill-opacity:0.21693122;display:inline">
      <path
         inkscape:connector-curvature="0"
         id="path130"
         style="fill:#000000;fill-opacity:0.21693122;fill-rule:nonzero;stroke:none"
         d="m 0,0 c -3.406,1.752 -4.749,5.936 -2.995,9.345 1.753,3.408 5.939,4.744 9.345,2.992 C 9.754,10.586 11.098,6.4 9.345,2.992 7.592,-0.415 3.404,-1.753 0,0 m 16.987,-3.343 1.953,3.796 -4.224,2.77 c 0.335,1.31 0.436,2.644 0.324,3.951 l 4.626,2.035 -1.303,4.068 -4.95,-1.029 c -0.668,1.128 -1.523,2.154 -2.557,3.025 l 1.83,4.708 -3.798,1.955 -2.77,-4.226 c -1.307,0.334 -2.64,0.435 -3.946,0.325 l -2.041,4.626 -4.066,-1.302 1.032,-4.951 C -4.032,15.74 -5.058,14.884 -5.931,13.85 l -4.707,1.828 -1.953,-3.795 4.224,-2.768 C -8.702,7.803 -8.803,6.471 -8.692,5.165 l -4.625,-2.038 1.302,-4.068 4.951,1.031 c 0.667,-1.129 1.524,-2.155 2.558,-3.026 l -1.832,-4.708 3.8,-1.955 2.767,4.226 c 1.309,-0.335 2.642,-0.436 3.948,-0.323 l 2.041,-4.628 4.064,1.304 -1.029,4.948 c 1.127,0.67 2.153,1.527 3.027,2.558 l 4.707,-1.829 z" />
    </g>
  </g>
  <g
     inkscape:groupmode="layer"
     id="layer1"
     inkscape:label="Layer"
     style="display:inline">
    <rect
       y="68.533386"
       x="22.58614"
       width="57.918453"
       style="fill:#c00000"
       id="minus"
       height="19.399466" />
    <use
       y="0"
       xlink:href="#minus"
       x="0"
       width="71"
       transform="translate(77.224606,6.425724e-7)"
       id="use8"
       height="26" />
    <use
       y="0"
       xlink:href="#minus"
       x="0"
       width="71"
       transform="translate(154.44921,6.425724e-7)"
       id="use10"
       height="26" />
    <path
       inkscape:connector-curvature="0"
       style="fill:#008000"
       id="plus"
       d="m 41.892276,117.03205 0,19.39947 -19.30615,0 0,19.39947 19.30615,0 0,19.39945 19.30616,0 0,-19.39945 19.30615,0 0,-19.39947 -19.30615,0 0,-19.39947 -19.30616,0 z" />
    <use
       y="0"
       xlink:href="#plus"
       x="0"
       width="71"
       transform="translate(77.224606,6.425724e-7)"
       id="use13"
       height="26" />
    <use
       y="0"
       xlink:href="#plus"
       x="0"
       width="71"
       transform="translate(154.44921,6.425724e-7)"
       id="use15"
       height="26" />
  </g>
</svg>
