<?xml version="1.0" encoding="UTF-8" standalone="no"?>
<!-- Created with Inkscape (http://www.inkscape.org/) -->

<svg
   xmlns:dc="http://purl.org/dc/elements/1.1/"
   xmlns:cc="http://creativecommons.org/ns#"
   xmlns:rdf="http://www.w3.org/1999/02/22-rdf-syntax-ns#"
   xmlns:svg="http://www.w3.org/2000/svg"
   xmlns="http://www.w3.org/2000/svg"
   xmlns:sodipodi="http://sodipodi.sourceforge.net/DTD/sodipodi-0.dtd"
   xmlns:inkscape="http://www.inkscape.org/namespaces/inkscape"
   width="744.09448819"
   height="1052.3622047"
   id="svg2"
   version="1.1"
   inkscape:version="0.48.1 "
   sodipodi:docname="icon.svg">
  <defs
     id="defs4">
    <clipPath
       id="clipPath3001"
       clipPathUnits="userSpaceOnUse">
      <path
         id="path3003"
         d="M 0,918.855 0,0 l 918.879,0 0,918.855 -918.879,0 z" />
    </clipPath>
  </defs>
  <sodipodi:namedview
     id="base"
     pagecolor="#ffffff"
     bordercolor="#666666"
     borderopacity="1.0"
     inkscape:pageopacity="0.0"
     inkscape:pageshadow="2"
     inkscape:zoom="3.959798"
     inkscape:cx="356.75093"
     inkscape:cy="563.4415"
     inkscape:document-units="px"
     inkscape:current-layer="g2999"
     showgrid="false"
     inkscape:window-width="1920"
     inkscape:window-height="1028"
     inkscape:window-x="-8"
     inkscape:window-y="-8"
     inkscape:window-maximized="1" />
  <metadata
     id="metadata7">
    <rdf:RDF>
      <cc:Work
         rdf:about="">
        <dc:format>image/svg+xml</dc:format>
        <dc:type
           rdf:resource="http://purl.org/dc/dcmitype/StillImage" />
        <dc:title></dc:title>
      </cc:Work>
    </rdf:RDF>
  </metadata>
  <g
     inkscape:label="Layer 1"
     inkscape:groupmode="layer"
     id="layer1">
    <g
       transform="matrix(1.25,0,0,-1.25,302.57014,538.36205)"
       inkscape:label="ink_ext_XXXXXX"
       id="g2993">
      <g
         transform="scale(0.1,0.1)"
         id="g2995">
        <g
           id="g2997">
          <g
             clip-path="url(#clipPath3001)"
             id="g2999">
            <path
               style="fill:#f03c2e;fill-opacity:1;fill-rule:nonzero;stroke:none"
               d="M 359.875 423.5 C 357.9818 423.5 356.10156 424.21187 354.65625 425.65625 L 344.25 436.09375 L 357.4375 449.28125 C 360.50788 448.24462 364.05375 448.9595 366.5 451.40625 C 368.961 453.86825 369.6255 457.419 368.5625 460.5 L 381.3125 473.21875 C 384.3935 472.15675 387.94525 472.84812 390.40625 475.3125 C 393.84375 478.749 393.84375 484.31063 390.40625 487.75 C 386.96625 491.1895 381.379 491.1895 377.9375 487.75 C 375.35213 485.16213 374.72025 481.37313 376.03125 478.1875 L 364.15625 466.3125 L 364.15625 497.5625 C 364.99363 497.9775 365.80175 498.5225 366.5 499.21875 C 369.9375 502.65587 369.9375 508.24512 366.5 511.6875 C 363.0625 515.1235 357.46625 515.1235 354.03125 511.6875 C 350.59375 508.24512 350.59375 502.65587 354.03125 499.21875 C 354.88087 498.37012 355.88775 497.74225 356.9375 497.3125 L 356.9375 465.78125 C 355.88775 465.3515 354.88325 464.69825 354.03125 463.84375 C 351.42775 461.24113 350.82075 457.4165 352.15625 454.21875 L 339.125 441.1875 L 320.125 460.21875 C 321.93074 459.76743 323.77837 459.53128 325.6875 459.53125 C 328.66448 459.53129 331.55887 460.09522 334.34375 461.21875 C 337.12857 462.34237 339.58255 463.92321 341.75 465.96875 L 345.71875 462.03125 C 346.30569 461.40444 347.01307 461.28171 347.84375 461.625 C 348.63336 461.96948 349.0312 462.55572 349.03125 463.40625 L 349.03125 477.03125 C 349.0312 477.55845 348.82232 477.99016 348.4375 478.375 C 348.05259 478.75989 347.61978 478.96877 347.09375 478.96875 L 333.46875 478.96875 C 332.61815 478.96877 332.03191 478.56073 331.6875 477.75 C 331.34303 476.96036 331.46576 476.2643 332.09375 475.65625 L 336.28125 471.46875 C 333.28428 468.69445 329.75871 467.31254 325.6875 467.3125 C 323.58209 467.31254 321.57002 467.71117 319.65625 468.53125 C 317.74245 469.3514 316.08517 470.44665 314.6875 471.84375 C 313.2898 473.24091 312.19511 474.89874 311.375 476.8125 C 310.55487 478.72631 310.15624 480.73728 310.15625 482.84375 C 310.15624 484.95027 310.55487 486.96123 311.375 488.875 C 312.19511 490.7888 313.2898 492.44662 314.6875 493.84375 C 316.08517 495.24089 317.74245 496.36739 319.65625 497.1875 C 321.57002 498.00762 323.58209 498.40625 325.6875 498.40625 C 329.11081 498.40625 332.20356 497.38958 334.9375 495.375 C 337.67137 493.36044 339.55019 490.71909 340.5625 487.4375 C 340.70422 486.97236 341.00245 486.75002 341.46875 486.75 L 347.5 486.75 C 347.82335 486.75002 348.06721 486.85122 348.25 487.09375 C 348.45263 487.35735 348.52962 487.65399 348.46875 487.9375 C 347.67905 491.48157 346.19727 494.63193 344 497.40625 C 341.80265 500.18058 339.09586 502.33555 335.90625 503.875 C 332.71657 505.41445 329.31348 506.1875 325.6875 506.1875 C 325.3993 506.1875 325.12959 506.16654 324.84375 506.15625 L 354.875 536.1875 C 357.76225 539.07568 362.45213 539.07568 365.34375 536.1875 L 415.25 486.28125 C 418.13912 483.39213 418.13912 478.70075 415.25 475.8125 L 365.125 425.65625 C 363.68162 424.21187 361.7682 423.5 359.875 423.5 z "
               transform="matrix(8,0,0,-8,-2420.5611,4306.8964)"
               id="path3005" />
            <g
               transform="scale(1,-1)"
               style="font-size:320px;font-style:normal;font-variant:normal;font-weight:normal;font-stretch:normal;line-height:125%;letter-spacing:0px;word-spacing:0px;fill:#000000;fill-opacity:1;stroke:none;font-family:FontAwesome;-inkscape-font-specification:FontAwesome"
               id="text2995" />
          </g>
        </g>
      </g>
    </g>
  </g>
</svg>
